<mxfile host="app.diagrams.net" modified="2023-12-13T09:50:24.942Z" agent="Mozilla/5.0 (Windows NT 10.0; Win64; x64) AppleWebKit/537.36 (KHTML, like Gecko) Chrome/119.0.0.0 Safari/537.36" version="21.2.3" etag="_eaOH1Fjfw7Q-4pJDDDk" type="github">
  <diagram name="第 1 页" id="Y94EY9-NAArY7lyr-e-n">
    <mxGraphModel>
      <root>
        <mxCell id="0" />
        <mxCell id="1" parent="0" />
      </root>
    </mxGraphModel>
  </diagram>
</mxfile>
